<svg width="60" height="42" viewBox="0 0 60 42" fill="none" xmlns="http://www.w3.org/2000/svg">
<path fill-rule="evenodd" clip-rule="evenodd" d="M29.7867 20.9499C29.7867 18.1053 27.8174 15.9807 24.7605 15.9807C21.7065 15.9807 19.7372 18.1053 19.7372 20.9499C19.7372 23.7915 21.7065 25.9161 24.7605 25.9161C27.8174 25.9161 29.7867 23.7915 29.7867 20.9499ZM27.2852 20.9499C27.2852 22.5896 26.2174 23.6652 24.7605 23.6652C23.3265 23.6652 22.2589 22.5279 22.2589 20.9499C22.2589 19.3072 23.3666 18.2522 24.7605 18.2522C26.1974 18.2522 27.2852 19.3483 27.2852 20.9499ZM34.4008 15.9807C32.4917 15.9807 31.0148 17.0121 31.0148 18.8635C31.0148 20.9346 32.8086 21.461 34.2444 21.8823C35.2023 22.1634 36.0008 22.3977 36.0008 23.0128C36.0008 23.6005 35.4655 23.8973 34.7901 23.8973C33.8654 23.8973 32.4717 23.3272 31.9192 22.716L30.7686 24.297C31.2008 24.9699 32.9239 25.9161 34.6241 25.9161C36.8823 25.9161 38.3595 24.7583 38.3595 22.8864C38.3595 20.8999 36.606 20.3951 35.1787 19.9843C34.1992 19.7023 33.3732 19.4646 33.3732 18.8223C33.3732 18.4021 33.8055 17.9995 34.5239 17.9995C35.5086 17.9995 36.4701 18.4638 37.0255 18.9046L37.907 17.1796C37.3317 16.633 36.1839 15.9807 34.4008 15.9807ZM44.3875 15.9807C47.4416 15.9807 49.4109 18.1053 49.4109 20.9499C49.4109 23.7915 47.4416 25.9161 44.3875 25.9161C41.3306 25.9161 39.3613 23.7915 39.3613 20.9499C39.3613 18.1053 41.3306 15.9807 44.3875 15.9807ZM44.3875 23.6652C45.8444 23.6652 46.9091 22.5896 46.9091 20.9499C46.9091 19.3483 45.8216 18.2522 44.3875 18.2522C42.9935 18.2522 41.8857 19.3072 41.8857 20.9499C41.8857 22.5279 42.9506 23.6652 44.3875 23.6652ZM53.3062 16.2101H50.9478V25.6871H53.3062V19.2222C53.8616 18.655 54.5169 18.3171 55.3184 18.3171C56.6293 18.3171 57.3878 19.0312 57.3878 20.5475V25.6871H59.7465V20.1273C59.7465 17.1593 58.2093 16.0426 55.9538 16.0426C54.8462 16.0426 53.8616 16.548 53.3062 17.1593V16.2101Z" fill="#2F3C8F"/>
<path fill-rule="evenodd" clip-rule="evenodd" d="M15.0571 20.7925C15.0571 21.8254 14.2415 22.6627 13.2354 22.6627C12.2294 22.6627 11.4138 21.8254 11.4138 20.7925C11.4138 19.7596 12.2294 18.9223 13.2354 18.9223C14.2415 18.9223 15.0571 19.7596 15.0571 20.7925ZM2.6092 20.9482C2.6092 21.5507 2.13345 22.0392 1.54659 22.0392C0.959726 22.0392 0.483978 21.5507 0.483978 20.9482C0.483978 20.3457 0.959726 19.8573 1.54659 19.8573C2.13345 19.8573 2.6092 20.3457 2.6092 20.9482ZM10.1991 26.4031C10.7021 26.4031 11.1099 25.9844 11.1099 25.468C11.1099 24.9516 10.7021 24.5329 10.1991 24.5329C9.69609 24.5329 9.2883 24.9516 9.2883 25.468C9.2883 25.9844 9.69609 26.4031 10.1991 26.4031Z" fill="#48A1DA"/>
<path fill-rule="evenodd" clip-rule="evenodd" d="M5.03735 16.7404C6.04341 16.7404 6.85896 15.9031 6.85896 14.8702C6.85896 13.8373 6.04341 13 5.03735 13C4.0313 13 3.21574 13.8373 3.21574 14.8702C3.21574 15.9031 4.0313 16.7404 5.03735 16.7404ZM5.03691 28.8968C6.04296 28.8968 6.85855 28.0595 6.85855 27.0266C6.85855 25.9937 6.04296 25.1564 5.03691 25.1564C4.03086 25.1564 3.2153 25.9937 3.2153 27.0266C3.2153 28.0595 4.03086 28.8968 5.03691 28.8968ZM11.1094 16.273C11.1094 16.8755 10.6337 17.3639 10.0468 17.3639C9.45995 17.3639 8.98421 16.8755 8.98421 16.273C8.98421 15.6704 9.45995 15.182 10.0468 15.182C10.6337 15.182 11.1094 15.6704 11.1094 16.273ZM6.85865 24.2211C8.70307 24.2211 10.1983 22.6861 10.1983 20.7925C10.1983 18.8989 8.70307 17.3638 6.85865 17.3638C5.01424 17.3638 3.51902 18.8989 3.51902 20.7925C3.51902 22.6861 5.01424 24.2211 6.85865 24.2211ZM6.85865 23.3983C5.45689 23.3983 4.32052 22.2316 4.32052 20.7925C4.32052 19.3533 5.45689 18.1867 6.85865 18.1867C8.26042 18.1867 9.39678 19.3533 9.39678 20.7925C9.39678 22.2316 8.26042 23.3983 6.85865 23.3983Z" fill="#2F3C8F"/>
</svg>
